<?xml version="1.0" encoding="UTF-8" standalone="no"?>
<!-- Created with Inkscape (http://www.inkscape.org/) -->

<svg
   width="64"
   height="63.999996"
   viewBox="0 0 64 63.999999"
   version="1.1"
   id="svg1"
   xmlns:xlink="http://www.w3.org/1999/xlink"
   xmlns="http://www.w3.org/2000/svg"
   xmlns:svg="http://www.w3.org/2000/svg">
  <defs
     id="defs1">
    <linearGradient
       id="linearGradient1">
      <stop
         style="stop-color:#efae13;stop-opacity:1;"
         offset="0"
         id="stop1" />
      <stop
         style="stop-color:#f887e7;stop-opacity:1;"
         offset="1"
         id="stop2" />
    </linearGradient>
    <linearGradient
       xlink:href="#linearGradient1"
       id="linearGradient2"
       x1="10.278409"
       y1="33.191959"
       x2="54.093811"
       y2="33.191959"
       gradientUnits="userSpaceOnUse"
       gradientTransform="translate(0.74474335,-2.0866489)" />
  </defs>
  <g
     id="layer1">
    <circle
       style="fill:#2b2b2b;fill-opacity:1;stroke:none;stroke-width:0.600022;stroke-dasharray:none;stroke-opacity:1;paint-order:stroke fill markers"
       id="path6"
       cx="32"
       cy="32"
       r="31.100435" />
    <g
       id="g5"
       transform="matrix(0.71421124,0,0,0.71421124,9.1452404,9.1452403)">
      <path
         d="m 52.976847,43.571791 c 0,4.927893 -1.833081,8.701184 -5.499243,11.319871 -3.642356,2.594881 -8.998762,3.892322 -16.069218,3.892322 -6.451494,0 -11.510322,-1.1427 -15.176484,-3.4281 -3.666163,-2.2854 -6.02298,-5.749209 -7.0704553,-10.391428 l 6.0093183,2.082932 4.167852,-3.761272 c 0.690381,2.666299 2.035435,4.606508 4.03516,5.820627 1.999725,1.190313 4.773153,1.785469 8.320284,1.785469 7.356131,0 11.034196,-2.237787 11.034196,-6.713362 0,-1.428375 -0.428512,-2.606785 -1.285537,-3.535228 -0.833219,-0.928444 -2.023531,-1.702147 -3.570938,-2.321109 -1.5236,-0.618963 -4.463672,-1.36886 -8.820215,-2.249691 -3.761387,-0.880831 -6.380075,-1.583116 -7.856062,-2.106853 -1.475987,-0.547544 -2.809137,-1.17841 -3.99945,-1.892597 -1.190313,-0.737993 -2.202078,-1.618824 -3.035297,-2.642493 -0.833219,-1.023669 -1.48789,-2.225884 -1.964015,-3.606647 -0.452319,-1.380763 -0.678478,-2.963878 -0.678478,-4.749347 0,-4.546993 1.702147,-8.022706 5.10644,-10.427137 3.4281,-2.4282379 8.403606,-3.6423553 14.926518,-3.6423553 6.237237,0 10.915165,0.9760554 14.033784,2.9281684 3.142425,1.9521119 5.165956,5.1778589 6.070594,9.6772399 l -6.303768,-3.735252 -3.909113,5.127917 c -0.523738,-2.166369 -1.595019,-3.797097 -3.213844,-4.892184 -1.595019,-1.095087 -3.892322,-1.642631 -6.891909,-1.642631 -6.380075,0 -9.570112,1.999725 -9.570112,5.999175 0,1.309343 0.333287,2.380624 0.999862,3.213843 0.690381,0.833219 1.702147,1.547406 3.035297,2.142563 1.33315,0.57135 4.035159,1.297441 8.106028,2.178272 4.832669,1.023669 8.284575,1.975919 10.355718,2.85675 2.09495,0.857025 3.749484,1.86879 4.963603,3.035296 1.214119,1.1427 2.142562,2.523463 2.785331,4.142288 0.642769,1.595019 0.964153,3.440003 0.964153,5.534953 z"
         id="path4"
         style="font-weight:bold;font-size:73.1328px;font-family:Arial;-inkscape-font-specification:'Arial Bold';text-align:center;text-anchor:middle;fill:#6b6b6b;fill-opacity:0.527413;stroke-width:11.427;paint-order:stroke fill markers"
         aria-label="S" />
      <path
         d="m 54.838553,41.782415 c 0,4.927893 -1.833081,8.701184 -5.499243,11.319871 -3.642356,2.594881 -8.998762,3.892322 -16.069218,3.892322 -6.451494,0 -11.510322,-1.1427 -15.176484,-3.4281 -3.666163,-2.2854 -6.022981,-5.749209 -7.070456,-10.391428 l 6.009319,2.082932 4.167852,-3.761272 c 0.690381,2.666299 2.035435,4.606508 4.03516,5.820627 1.999725,1.190313 4.773153,1.785469 8.320284,1.785469 7.356131,0 11.034196,-2.237787 11.034196,-6.713362 0,-1.428375 -0.428512,-2.606785 -1.285537,-3.535228 -0.833219,-0.928444 -2.023531,-1.702147 -3.570938,-2.321109 -1.5236,-0.618963 -4.463672,-1.36886 -8.820215,-2.249691 -3.761387,-0.880831 -6.380075,-1.583116 -7.856062,-2.106853 -1.475987,-0.547544 -2.809137,-1.17841 -3.99945,-1.892597 -1.190313,-0.737993 -2.202078,-1.618824 -3.035297,-2.642493 -0.833219,-1.023669 -1.48789,-2.225884 -1.964015,-3.606647 -0.452319,-1.380763 -0.678478,-2.963878 -0.678478,-4.749347 0,-4.546993 1.702147,-8.022706 5.10644,-10.4271369 3.4281,-2.4282374 8.403606,-3.6423561 14.926518,-3.6423561 6.237237,0 10.915165,0.9760564 14.033784,2.9281691 3.142425,1.9521119 5.165956,5.1778589 6.070594,9.6772399 l -6.303768,-3.735252 -3.909113,5.127917 c -0.523738,-2.166369 -1.595019,-3.797097 -3.213844,-4.892184 -1.595019,-1.095087 -3.892322,-1.642631 -6.891909,-1.642631 -6.380075,0 -9.570112,1.999725 -9.570112,5.999175 0,1.309343 0.333287,2.380624 0.999862,3.213843 0.690381,0.833219 1.702147,1.547406 3.035297,2.142563 1.33315,0.57135 4.035159,1.297441 8.106028,2.178272 4.832669,1.023669 8.284575,1.975919 10.355718,2.85675 2.09495,0.857025 3.749484,1.86879 4.963603,3.035296 1.214119,1.1427 2.142562,2.523463 2.785331,4.142288 0.642769,1.595019 0.964153,3.440003 0.964153,5.534953 z"
         id="path5"
         style="font-weight:bold;font-size:73.1328px;font-family:Arial;-inkscape-font-specification:'Arial Bold';text-align:center;text-anchor:middle;fill:url(#linearGradient2);stroke-width:11.427;paint-order:stroke fill markers"
         aria-label="S" />
    </g>
  </g>
</svg>
